<?xml version="1.0" encoding="utf-8"?>
<!-- Generator: Adobe Illustrator 16.0.0, SVG Export Plug-In . SVG Version: 6.00 Build 0)  -->
<!DOCTYPE svg PUBLIC "-//W3C//DTD SVG 1.1//EN" "http://www.w3.org/Graphics/SVG/1.1/DTD/svg11.dtd">
<svg version="1.1" id="Layer_1" xmlns="http://www.w3.org/2000/svg" xmlns:xlink="http://www.w3.org/1999/xlink" x="0px" y="0px"
	 width="100px" height="100px" viewBox="0 0 100 100" enable-background="new 0 0 100 100" xml:space="preserve">
<text transform="matrix(1 0 0 1 47.3809 57.9482)" fill="#231F20" font-family="'PoplarStd'" font-size="25.5838">i</text>
<g>
	<radialGradient id="SVGID_1_" cx="51.8809" cy="50.2896" r="39.1901" fx="52.5327" fy="47.5558" gradientUnits="userSpaceOnUse">
		<stop  offset="0" style="stop-color:#E71E26"/>
		<stop  offset="0.0808" style="stop-color:#E93541"/>
		<stop  offset="0.2191" style="stop-color:#ED5868"/>
		<stop  offset="0.362" style="stop-color:#F07489"/>
		<stop  offset="0.5085" style="stop-color:#F28AA3"/>
		<stop  offset="0.6599" style="stop-color:#F49AB5"/>
		<stop  offset="0.8193" style="stop-color:#F5A3C0"/>
		<stop  offset="1" style="stop-color:#F5A6C3"/>
	</radialGradient>
	<path fill="url(#SVGID_1_)" d="M92.503,80.42c0,6.847-5.556,12.4-12.4,12.4H19.841c-6.854,0-12.409-5.554-12.409-12.4V20.159
		c0-6.846,5.555-12.4,12.409-12.4h60.261c6.845,0,12.4,5.554,12.4,12.4V80.42z"/>
	
		<image overflow="visible" width="390" height="390" xlink:href="D96F4DE0201C5590.png"  transform="matrix(0.24 0 0 0.24 3.2129 3.5381)">
	</image>
</g>
<g>
	<g>
		<radialGradient id="SVGID_2_" cx="49.9668" cy="23.6592" r="9.082" gradientUnits="userSpaceOnUse">
			<stop  offset="0" style="stop-color:#E71E26"/>
			<stop  offset="0.0808" style="stop-color:#E93541"/>
			<stop  offset="0.2191" style="stop-color:#ED5868"/>
			<stop  offset="0.362" style="stop-color:#F07489"/>
			<stop  offset="0.5085" style="stop-color:#F28AA3"/>
			<stop  offset="0.6599" style="stop-color:#F49AB5"/>
			<stop  offset="0.8193" style="stop-color:#F5A3C0"/>
			<stop  offset="1" style="stop-color:#F5A6C3"/>
		</radialGradient>
		<circle fill="url(#SVGID_2_)" cx="49.967" cy="23.66" r="9.082"/>
		
			<image overflow="visible" width="93" height="93" xlink:href="D96F4DE0201C5597.png"  transform="matrix(0.24 0 0 0.24 38.8604 12.5537)">
		</image>
	</g>
	<g>
		<radialGradient id="SVGID_3_" cx="49.9658" cy="23.6602" r="4.3652" gradientUnits="userSpaceOnUse">
			<stop  offset="0" style="stop-color:#E71E26"/>
			<stop  offset="0.0808" style="stop-color:#E93541"/>
			<stop  offset="0.2191" style="stop-color:#ED5868"/>
			<stop  offset="0.362" style="stop-color:#F07489"/>
			<stop  offset="0.5085" style="stop-color:#F28AA3"/>
			<stop  offset="0.6599" style="stop-color:#F49AB5"/>
			<stop  offset="0.8193" style="stop-color:#F5A3C0"/>
			<stop  offset="1" style="stop-color:#F5A6C3"/>
		</radialGradient>
		<circle fill="url(#SVGID_3_)" cx="49.966" cy="23.66" r="4.365"/>
		
			<image overflow="visible" width="54" height="54" xlink:href="D96F4DE0201C559D.png"  transform="matrix(0.24 0 0 0.24 43.5762 17.2705)">
		</image>
	</g>
	<g>
		<linearGradient id="SVGID_4_" gradientUnits="userSpaceOnUse" x1="49.9663" y1="85.9951" x2="49.9663" y2="38.1279">
			<stop  offset="0" style="stop-color:#E71E26"/>
			<stop  offset="0.3252" style="stop-color:#EC4E5D"/>
			<stop  offset="0.786" style="stop-color:#F28DA6"/>
			<stop  offset="1" style="stop-color:#F5A6C3"/>
		</linearGradient>
		<path fill="url(#SVGID_4_)" d="M56.646,79.316c0,3.694-2.991,6.679-6.679,6.679l0,0c-3.69,0-6.682-2.984-6.682-6.679V44.809
			c0-3.689,2.992-6.681,6.682-6.681l0,0c3.688,0,6.679,2.992,6.679,6.681V79.316z"/>
		
			<image overflow="visible" width="73" height="217" xlink:href="D96F4DE0201C559E.png"  transform="matrix(0.24 0 0 0.24 41.2588 36.103)">
		</image>
	</g>
</g>
</svg>
